<mxfile host="Electron" modified="2024-04-25T07:42:51.075Z" agent="Mozilla/5.0 (X11; Linux x86_64) AppleWebKit/537.36 (KHTML, like Gecko) draw.io/24.2.5 Chrome/120.0.6099.109 Electron/28.1.0 Safari/537.36" etag="PADOQzKdYgdN-Edv2kP1" version="24.2.5" type="device">
  <diagram name="Page-1" id="yPQlsqrmwEttC6wRed7g">
    <mxGraphModel dx="1434" dy="835" grid="1" gridSize="10" guides="1" tooltips="1" connect="1" arrows="1" fold="1" page="1" pageScale="1" pageWidth="850" pageHeight="1100" math="0" shadow="0">
      <root>
        <mxCell id="0" />
        <mxCell id="1" parent="0" />
        <mxCell id="mVL9S5HK0tB8LYCusONq-3" value="" style="endArrow=blockThin;html=1;rounded=1;shadow=0;strokeColor=#264653;strokeWidth=4;fontFamily=Ubuntu;fontSize=22;fontColor=#264653;fontStyle=0;fillColor=#264653;endFill=1;" parent="1" edge="1">
          <mxGeometry width="50" height="50" relative="1" as="geometry">
            <mxPoint x="290" y="360" as="sourcePoint" />
            <mxPoint x="470" y="360" as="targetPoint" />
          </mxGeometry>
        </mxCell>
        <mxCell id="mVL9S5HK0tB8LYCusONq-4" value="0" style="text;html=1;align=center;verticalAlign=middle;whiteSpace=wrap;rounded=0;fontFamily=Ubuntu;fontSize=22;fontColor=#264653;fontStyle=0;" parent="1" vertex="1">
          <mxGeometry x="230" y="340" width="60" height="30" as="geometry" />
        </mxCell>
        <mxCell id="mVL9S5HK0tB8LYCusONq-6" value="n" style="text;html=1;align=center;verticalAlign=middle;whiteSpace=wrap;rounded=0;fontFamily=Ubuntu;fontSize=22;fontColor=#264653;fontStyle=0;" parent="1" vertex="1">
          <mxGeometry x="460" y="340" width="60" height="30" as="geometry" />
        </mxCell>
        <mxCell id="Y9IwkcneVTxvI0zjhUI--10" value="" style="group" vertex="1" connectable="0" parent="1">
          <mxGeometry x="293" y="212" width="160" height="120" as="geometry" />
        </mxCell>
        <mxCell id="Y9IwkcneVTxvI0zjhUI--4" value="" style="rounded=0;whiteSpace=wrap;html=1;shadow=0;strokeColor=#6c8ebf;strokeWidth=2;fontFamily=Ubuntu;fontSize=22;fontColor=#264653;fontStyle=0;fillColor=#dae8fc;" vertex="1" parent="Y9IwkcneVTxvI0zjhUI--10">
          <mxGeometry y="60" width="10" height="60" as="geometry" />
        </mxCell>
        <mxCell id="Y9IwkcneVTxvI0zjhUI--5" value="" style="rounded=0;whiteSpace=wrap;html=1;shadow=0;strokeColor=#6c8ebf;strokeWidth=2;fontFamily=Ubuntu;fontSize=22;fontColor=#264653;fontStyle=0;fillColor=#dae8fc;" vertex="1" parent="Y9IwkcneVTxvI0zjhUI--10">
          <mxGeometry x="30" y="50" width="10" height="70" as="geometry" />
        </mxCell>
        <mxCell id="Y9IwkcneVTxvI0zjhUI--6" value="" style="rounded=0;whiteSpace=wrap;html=1;shadow=0;strokeColor=#6c8ebf;strokeWidth=2;fontFamily=Ubuntu;fontSize=22;fontColor=#264653;fontStyle=0;fillColor=#dae8fc;" vertex="1" parent="Y9IwkcneVTxvI0zjhUI--10">
          <mxGeometry x="60" y="30" width="10" height="90" as="geometry" />
        </mxCell>
        <mxCell id="Y9IwkcneVTxvI0zjhUI--7" value="" style="rounded=0;whiteSpace=wrap;html=1;shadow=0;strokeColor=#6c8ebf;strokeWidth=2;fontFamily=Ubuntu;fontSize=22;fontColor=#264653;fontStyle=0;fillColor=#dae8fc;" vertex="1" parent="Y9IwkcneVTxvI0zjhUI--10">
          <mxGeometry x="90" y="20" width="10" height="100" as="geometry" />
        </mxCell>
        <mxCell id="Y9IwkcneVTxvI0zjhUI--8" value="" style="rounded=0;whiteSpace=wrap;html=1;shadow=0;strokeColor=#6c8ebf;strokeWidth=2;fontFamily=Ubuntu;fontSize=22;fontColor=#264653;fontStyle=0;fillColor=#dae8fc;" vertex="1" parent="Y9IwkcneVTxvI0zjhUI--10">
          <mxGeometry x="120" y="20" width="10" height="100" as="geometry" />
        </mxCell>
        <mxCell id="Y9IwkcneVTxvI0zjhUI--9" value="" style="rounded=0;whiteSpace=wrap;html=1;shadow=0;strokeColor=#6c8ebf;strokeWidth=2;fontFamily=Ubuntu;fontSize=22;fontColor=#264653;fontStyle=0;fillColor=#dae8fc;" vertex="1" parent="Y9IwkcneVTxvI0zjhUI--10">
          <mxGeometry x="150" width="10" height="120" as="geometry" />
        </mxCell>
      </root>
    </mxGraphModel>
  </diagram>
</mxfile>
